<svg id="Layer_1" data-name="Layer 1" xmlns="http://www.w3.org/2000/svg" viewBox="0 0 240 80"><defs><style>.cls-1{fill:#d0d0d0;}.cls-2{fill:#b7c1c3;}.cls-3{fill:#2690ba;}.cls-4{fill:#545c61;}.cls-5{fill:#dab370;}.cls-6{fill:#fff;}.cls-7{fill:#6b777d;}.cls-8{fill:#77523b;}.cls-9{fill:#95664a;}.cls-10{fill:#dbc391;}.cls-11{fill:#b27d5e;}.cls-12{fill:#efcea0;}.cls-13{fill:#fff4cd;}.cls-14{fill:#69787f;}.cls-15{fill:#e84266;}.cls-16{fill:#5a6167;}.cls-17{fill:#3f4347;}.cls-18{fill:#ffce30;}.cls-19{fill:#5a4740;}</style></defs><title>logo-sjmd-course</title><path class="cls-1" d="M14.41,42.59H29.27L21.84,23.68Zm17.43,1.78h-20l10-25.47Z"/><path class="cls-1" d="M50.79,42.59H65.65L58.22,23.68Zm17.43,1.78h-20l10-25.47Z"/><path class="cls-2" d="M57.78,18.72s-2.09-.81-3.27-1.29c-4.17-1.71-9.35-3.84-14.48-3.84s-10.32,2.13-14.49,3.84c-1.17.48-3.26,1.29-3.26,1.29l-3.2,2.47s2.58,1.63,3.92,1.15c1-.37,2.16-.84,3.36-1.33,4-1.64,9-3.67,13.67-3.67s9.68,2,13.67,3.67c1.19.49,2.33,1,3.36,1.33,1.34.48,3.92-1.15,3.92-1.15Z"/><path class="cls-3" d="M10.92,42.55a10.92,10.92,0,0,0,21.83,0Z"/><path class="cls-3" d="M47.3,42.55a10.92,10.92,0,0,0,21.83,0Z"/><rect class="cls-2" x="38.21" y="20.72" width="3.64" height="40.02"/><rect class="cls-1" x="37.09" y="26.87" width="5.87" height="33.87"/><rect class="cls-4" x="35.88" y="44.37" width="8.3" height="19.1"/><circle class="cls-5" cx="21.84" cy="21.63" r="3.64"/><circle class="cls-4" cx="58.22" cy="21.63" r="3.64" transform="translate(-3.84 23.93) rotate(-22.5)"/><circle class="cls-4" cx="21.84" cy="21.63" r="3.64"/><path class="cls-6" d="M21.84,19.81A1.82,1.82,0,1,1,20,21.63,1.82,1.82,0,0,1,21.84,19.81Z"/><path class="cls-6" d="M58.22,19.81a1.82,1.82,0,1,1-1.82,1.82A1.82,1.82,0,0,1,58.22,19.81Z"/><circle class="cls-1" cx="40.03" cy="16.17" r="5.46"/><path class="cls-1" d="M40,52.55c-8,0-14.55,4.07-14.55,9.1h29.1C54.58,56.62,48.06,52.55,40,52.55Z"/><rect class="cls-4" x="23.66" y="61.65" width="32.74" height="3.64"/><rect class="cls-7" x="20.02" y="65.28" width="40.02" height="3.64"/><g id="Group_65" data-name="Group 65"><g id="Group_62" data-name="Group 62"><g id="Group_26" data-name="Group 26"><path id="Path_33" data-name="Path 33" class="cls-8" d="M104.76,21.74a.6.6,0,0,1-.8.33.61.61,0,0,1-.33-.8h0l.37-.87a.62.62,0,0,1,.8-.34.61.61,0,0,1,.34.8v0Z"/></g><g id="Group_27" data-name="Group 27"><path id="Path_34" data-name="Path 34" class="cls-8" d="M92.35,47.79a.63.63,0,0,1,.8-.34.62.62,0,0,1,.35.8l0,0-.37.88a.61.61,0,0,1-.79.34.62.62,0,0,1-.35-.8v0Z"/></g><g id="Group_28" data-name="Group 28"><path id="Path_35" data-name="Path 35" class="cls-9" d="M106.22,23.79a1.57,1.57,0,0,1-2,.83h0L102,23.68a1.56,1.56,0,0,1,1.22-2.88l2.2.94a1.55,1.55,0,0,1,.82,2Z"/></g><g id="Group_29" data-name="Group 29"><path id="Path_36" data-name="Path 36" class="cls-9" d="M90.9,45.75a1.57,1.57,0,0,1,2-.83l2.19.93a1.57,1.57,0,0,1-1.22,2.89l-2.2-.94A1.56,1.56,0,0,1,90.9,45.75Z"/></g><g id="Group_30" data-name="Group 30"><rect id="Rectangle_11" data-name="Rectangle 11" class="cls-10" x="87.53" y="32.17" width="22.05" height="5.2" transform="translate(28.01 111.88) rotate(-66.97)"/></g><g id="Group_31" data-name="Group 31"><path id="Path_37" data-name="Path 37" class="cls-8" d="M106.64,25.47a.68.68,0,0,1-.9.36L100,23.4a.69.69,0,0,1,.54-1.27l5.72,2.43A.69.69,0,0,1,106.64,25.47Z"/></g><g id="Group_32" data-name="Group 32"><path id="Path_38" data-name="Path 38" class="cls-8" d="M90.48,44.07a.68.68,0,0,1,.9-.36l5.73,2.43a.69.69,0,0,1-.55,1.27L90.84,45a.69.69,0,0,1-.36-.91Z"/></g><g id="Group_33" data-name="Group 33"><path id="Path_39" data-name="Path 39" class="cls-9" d="M104.64,21.69a.49.49,0,0,1-.56.41.48.48,0,0,1-.41-.56.43.43,0,0,1,.09-.22l.37-.87a.48.48,0,0,1,.56-.41.49.49,0,0,1,.41.56.47.47,0,0,1-.09.22Z"/></g><g id="Group_34" data-name="Group 34"><path id="Path_40" data-name="Path 40" class="cls-9" d="M92.48,47.85a.49.49,0,0,1,.56-.41.48.48,0,0,1,.41.56.43.43,0,0,1-.09.22l-.37.87a.5.5,0,0,1-.56.42A.49.49,0,0,1,92,49a.5.5,0,0,1,.09-.23Z"/></g><g id="Group_35" data-name="Group 35"><path id="Path_41" data-name="Path 41" class="cls-11" d="M105.64,23.54a1.41,1.41,0,0,1-1.72,1l-1.69-.72a1.62,1.62,0,0,1,1.22-2.88l1.7.72A1.42,1.42,0,0,1,105.64,23.54Z"/></g><g id="Group_36" data-name="Group 36"><path id="Path_42" data-name="Path 42" class="cls-11" d="M91.48,46a1.42,1.42,0,0,1,1.72-1l1.7.72a1.62,1.62,0,0,1-1.23,2.88L92,47.91A1.42,1.42,0,0,1,91.48,46Z"/></g><g id="Group_37" data-name="Group 37"><rect id="Rectangle_12" data-name="Rectangle 12" class="cls-12" x="87.53" y="32.76" width="22.05" height="4.03" transform="translate(28.01 111.88) rotate(-66.97)"/></g><g id="Group_38" data-name="Group 38"><path id="Path_43" data-name="Path 43" class="cls-9" d="M105.85,25.13a.63.63,0,0,1-.76.43l-4.43-1.88a.72.72,0,0,1-.11-1,.68.68,0,0,1,.65-.26l4.43,1.88A.63.63,0,0,1,105.85,25.13Z"/></g><g id="Group_39" data-name="Group 39"><path id="Path_44" data-name="Path 44" class="cls-9" d="M91.27,44.41A.63.63,0,0,1,92,44l4.43,1.88a.72.72,0,0,1-.54,1.28l-4.43-1.89A.62.62,0,0,1,91.27,44.41Z"/></g><g id="Group_40" data-name="Group 40"><path id="Path_45" data-name="Path 45" class="cls-8" d="M127.2,31.28a.62.62,0,1,1-1.14-.48l.37-.87a.62.62,0,0,1,1.15.45l0,0Z"/></g><g id="Group_41" data-name="Group 41"><path id="Path_46" data-name="Path 46" class="cls-8" d="M114.78,57.33a.63.63,0,0,1,.8-.34.61.61,0,0,1,.34.8v0l-.37.88a.61.61,0,0,1-1.13-.48Z"/></g><g id="Group_42" data-name="Group 42"><path id="Path_47" data-name="Path 47" class="cls-9" d="M128.65,33.33a1.57,1.57,0,0,1-2.05.83l-2.19-.93a1.57,1.57,0,0,1,1.22-2.89l2.2.94a1.56,1.56,0,0,1,.82,2Z"/></g><g id="Group_43" data-name="Group 43"><path id="Path_48" data-name="Path 48" class="cls-9" d="M113.33,55.3a1.57,1.57,0,0,1,2-.84l2.19.94a1.56,1.56,0,0,1-1.22,2.88l-2.2-.94A1.55,1.55,0,0,1,113.33,55.3Z"/></g><g id="Group_44" data-name="Group 44"><rect id="Rectangle_13" data-name="Rectangle 13" class="cls-10" x="109.96" y="41.71" width="22.05" height="5.2" transform="translate(32.88 138.33) rotate(-66.97)"/></g><g id="Group_45" data-name="Group 45"><path id="Path_49" data-name="Path 49" class="cls-8" d="M129.07,35a.7.7,0,0,1-.9.37l-5.72-2.44a.69.69,0,0,1,.54-1.27l5.72,2.43A.69.69,0,0,1,129.07,35Z"/></g><g id="Group_46" data-name="Group 46"><path id="Path_50" data-name="Path 50" class="cls-8" d="M112.91,53.61a.68.68,0,0,1,.9-.36l5.72,2.43A.69.69,0,0,1,119,57l-5.72-2.43a.68.68,0,0,1-.36-.9Z"/></g><g id="Group_47" data-name="Group 47"><path id="Path_51" data-name="Path 51" class="cls-9" d="M127.07,31.23a.5.5,0,0,1-.56.42.5.5,0,0,1-.42-.56.67.67,0,0,1,.1-.23l.37-.87a.49.49,0,0,1,1,.14.67.67,0,0,1-.1.23Z"/></g><g id="Group_48" data-name="Group 48"><path id="Path_52" data-name="Path 52" class="cls-9" d="M114.91,57.39a.5.5,0,0,1,.56-.42.5.5,0,0,1,.42.56.67.67,0,0,1-.1.23l-.37.87a.5.5,0,0,1-.56.42.48.48,0,0,1-.42-.55.51.51,0,0,1,.1-.24l.37-.87Z"/></g><g id="Group_49" data-name="Group 49"><path id="Path_53" data-name="Path 53" class="cls-11" d="M128.07,33.08a1.41,1.41,0,0,1-1.72,1l-1.69-.72a1.61,1.61,0,0,1-.29-2.27,1.63,1.63,0,0,1,1.51-.61l1.7.72A1.42,1.42,0,0,1,128.07,33.08Z"/></g><g id="Group_50" data-name="Group 50"><path id="Path_54" data-name="Path 54" class="cls-11" d="M113.91,55.54a1.42,1.42,0,0,1,1.72-1l1.69.72a1.62,1.62,0,0,1-1.22,2.88l-1.7-.72A1.42,1.42,0,0,1,113.91,55.54Z"/></g><g id="Group_51" data-name="Group 51"><rect id="Rectangle_14" data-name="Rectangle 14" class="cls-12" x="109.96" y="42.3" width="22.05" height="4.03" transform="translate(32.88 138.33) rotate(-66.97)"/></g><g id="Group_52" data-name="Group 52"><path id="Path_55" data-name="Path 55" class="cls-9" d="M128.28,34.67a.62.62,0,0,1-.76.43l-4.43-1.88a.72.72,0,0,1-.12-1,.7.7,0,0,1,.66-.26l4.43,1.88A.63.63,0,0,1,128.28,34.67Z"/></g><g id="Group_53" data-name="Group 53"><path id="Path_56" data-name="Path 56" class="cls-9" d="M113.7,54a.64.64,0,0,1,.76-.43l4.43,1.88a.73.73,0,0,1,.12,1,.74.74,0,0,1-.67.27l-4.42-1.89A.62.62,0,0,1,113.7,54Z"/></g><g id="Group_54" data-name="Group 54"><path id="Path_57" data-name="Path 57" class="cls-13" d="M114.28,53.44a51.25,51.25,0,0,1-17.64-7.5l8.63-20.3a52,52,0,0,0,17.64,7.5Z"/></g><g id="Group_55" data-name="Group 55"><path id="Path_58" data-name="Path 58" class="cls-14" d="M112.53,33a26.94,26.94,0,0,1-6.27-3.49l.32-.38a34.6,34.6,0,0,0,13.08,5.56l0,.5A27.06,27.06,0,0,1,112.53,33Z"/></g><g id="Group_56" data-name="Group 56"><path id="Path_59" data-name="Path 59" class="cls-14" d="M111.64,35.15a26.77,26.77,0,0,1-6.27-3.5l.32-.38a34.56,34.56,0,0,0,13.07,5.56l0,.5A27.1,27.1,0,0,1,111.64,35.15Z"/></g><g id="Group_57" data-name="Group 57"><path id="Path_60" data-name="Path 60" class="cls-14" d="M110.75,37.24a26.64,26.64,0,0,1-6.28-3.49l.32-.38A26.87,26.87,0,0,0,111,36.78Z"/></g><g id="Group_58" data-name="Group 58"><path id="Path_61" data-name="Path 61" class="cls-14" d="M109,41.44a35.52,35.52,0,0,1-3.21-1.54l.24-.44A34.64,34.64,0,0,0,109.16,41a26.67,26.67,0,0,0,6.93,2.15l0,.5A27.57,27.57,0,0,1,109,41.44Z"/></g><g id="Group_59" data-name="Group 59"><path id="Path_62" data-name="Path 62" class="cls-14" d="M108.07,43.54a26.73,26.73,0,0,1-6.27-3.49l.32-.39a34.58,34.58,0,0,0,13.07,5.57l0,.5A27.57,27.57,0,0,1,108.07,43.54Z"/></g><g id="Group_60" data-name="Group 60"><path id="Path_63" data-name="Path 63" class="cls-14" d="M107.18,45.64a27,27,0,0,1-6.28-3.49l.32-.39a27,27,0,0,0,6.15,3.42,26.56,26.56,0,0,0,6.93,2.14l0,.5A26.72,26.72,0,0,1,107.18,45.64Z"/></g><g id="Group_61" data-name="Group 61"><path id="Path_64" data-name="Path 64" class="cls-14" d="M106.29,47.74a27,27,0,0,1-6.28-3.5l.32-.38a27.22,27.22,0,0,0,6.15,3.42Z"/></g></g><g id="Group_64" data-name="Group 64"><g id="Group_63" data-name="Group 63"><path id="Path_65" data-name="Path 65" class="cls-15" d="M85.88,40a23.72,23.72,0,0,1,4.21-13.54l33.22,33.22A23.88,23.88,0,0,1,85.88,40Zm47.79,0a23.8,23.8,0,0,1-4.21,13.54L96.23,20.31A23.9,23.9,0,0,1,133.67,40ZM109.77,7.42A32.59,32.59,0,1,0,142.36,40h0A32.59,32.59,0,0,0,109.78,7.41h0Z"/></g></g></g><path class="cls-16" d="M161.5,38.48V47.9c0,19.41,52.19,19.41,52.19,0V38.48Z"/><polygon class="cls-17" points="229.08 31.93 187.59 50.6 146.11 31.93 187.59 13.26 229.08 31.93"/><path class="cls-18" d="M187.41,31.08l-20.74,9.33a.9.9,0,0,0-.5.86V50.6c0,1.14,1.36,1.14,1.36,0V41.89c6.18-2.77,19.67-8.85,20.24-9.11C188.6,32.41,188.24,30.7,187.41,31.08Z"/><path class="cls-18" d="M166.85,47.22c1.43,0,2.59,1.51,2.59,3.38S168.28,54,166.85,54s-2.59-1.51-2.59-3.38S165.42,47.22,166.85,47.22Z"/><path class="cls-18" d="M166.85,68.57c1.43,0,2.59-.76,2.59-1.69V50.6h-5.18V66.88C164.26,67.81,165.42,68.57,166.85,68.57Z"/><path class="cls-19" d="M168.62,50.89l-.27.18V68.26a1.82,1.82,0,0,0,.27-.15Z"/><path class="cls-19" d="M167.53,51.38l-.27,0V68.55l.27,0Z"/><path class="cls-19" d="M166.44,51.43l-.27,0V68.51l.27,0Z"/><path class="cls-19" d="M165.36,51.07l-.27-.18V68.11a1.17,1.17,0,0,0,.27.15Z"/></svg>