<svg id="Layer_1" data-name="Layer 1" xmlns="http://www.w3.org/2000/svg" viewBox="0 0 240 80"><defs><style>.cls-1{fill:#d0d0d0;}.cls-2{fill:#b7c1c3;}.cls-3{fill:#2690ba;}.cls-4{fill:#545c61;}.cls-5{fill:#dab370;}.cls-6{fill:#fff;}.cls-7{fill:#6b777d;}.cls-8{fill:#77523b;}.cls-9{fill:#95664a;}.cls-10{fill:#dbc391;}.cls-11{fill:#b27d5e;}.cls-12{fill:#efcea0;}.cls-13{fill:#fff4cd;}.cls-14{fill:#69787f;}.cls-15{fill:#e84266;}.cls-16{fill:#d9e3e8;}.cls-17{fill:#ef5b7a;}.cls-18{fill:#8a969d;}.cls-19{fill:#b0bcc5;}</style></defs><title>logo-sjmd-community</title><path class="cls-1" d="M22.17,42.59H37L29.6,23.68Zm17.44,1.78h-20l10-25.47Z"/><path class="cls-1" d="M58.55,42.59H73.41L66,23.68ZM76,44.37H56L66,18.9Z"/><path class="cls-2" d="M65.54,18.72s-2.09-.81-3.26-1.29c-4.17-1.71-9.35-3.84-14.49-3.84s-10.31,2.13-14.48,3.84c-1.17.48-3.26,1.29-3.26,1.29l-3.21,2.47s2.58,1.63,3.92,1.15c1-.37,2.17-.84,3.36-1.33,4-1.64,9-3.67,13.67-3.67s9.69,2,13.68,3.67c1.19.49,2.32,1,3.36,1.33,1.33.48,3.91-1.15,3.91-1.15Z"/><path class="cls-3" d="M18.69,42.55a10.92,10.92,0,0,0,21.83,0Z"/><path class="cls-3" d="M55.07,42.55a10.92,10.92,0,0,0,21.83,0Z"/><rect class="cls-2" x="45.98" y="20.72" width="3.64" height="40.02"/><rect class="cls-1" x="44.86" y="26.87" width="5.87" height="33.87"/><rect class="cls-4" x="43.65" y="44.37" width="8.3" height="19.1"/><circle class="cls-5" cx="29.6" cy="21.63" r="3.64"/><circle class="cls-4" cx="65.99" cy="21.63" r="3.64" transform="translate(-3.25 26.9) rotate(-22.5)"/><circle class="cls-4" cx="29.6" cy="21.63" r="3.64"/><path class="cls-6" d="M29.6,19.81a1.82,1.82,0,1,1-1.82,1.82A1.81,1.81,0,0,1,29.6,19.81Z"/><path class="cls-6" d="M66,19.81a1.82,1.82,0,1,1-1.82,1.82A1.81,1.81,0,0,1,66,19.81Z"/><circle class="cls-1" cx="47.79" cy="16.17" r="5.46"/><path class="cls-1" d="M47.79,52.55c-8,0-14.55,4.07-14.55,9.1H62.35C62.35,56.62,55.83,52.55,47.79,52.55Z"/><rect class="cls-4" x="31.42" y="61.65" width="32.74" height="3.64"/><rect class="cls-7" x="27.78" y="65.28" width="40.02" height="3.64"/><g id="Group_65" data-name="Group 65"><g id="Group_62" data-name="Group 62"><g id="Group_26" data-name="Group 26"><path id="Path_33" data-name="Path 33" class="cls-8" d="M112.53,21.74a.61.61,0,1,1-1.13-.47h0l.37-.87a.61.61,0,0,1,1.14.46v0Z"/></g><g id="Group_27" data-name="Group 27"><path id="Path_34" data-name="Path 34" class="cls-8" d="M100.12,47.79a.62.62,0,0,1,.8-.34.62.62,0,0,1,.34.8v0l-.37.88a.62.62,0,0,1-.8.34.62.62,0,0,1-.34-.8v0Z"/></g><g id="Group_28" data-name="Group 28"><path id="Path_35" data-name="Path 35" class="cls-9" d="M114,23.79a1.56,1.56,0,0,1-2,.83h0l-2.2-.94A1.57,1.57,0,0,1,111,20.8l2.19.94a1.54,1.54,0,0,1,.82,2Z"/></g><g id="Group_29" data-name="Group 29"><path id="Path_36" data-name="Path 36" class="cls-9" d="M98.67,45.75a1.56,1.56,0,0,1,2-.83l2.2.93a1.57,1.57,0,0,1-1.23,2.89l-2.19-.94A1.56,1.56,0,0,1,98.67,45.75Z"/></g><g id="Group_30" data-name="Group 30"><rect id="Rectangle_11" data-name="Rectangle 11" class="cls-10" x="95.3" y="32.17" width="22.05" height="5.2" transform="translate(32.73 119.02) rotate(-66.97)"/></g><g id="Group_31" data-name="Group 31"><path id="Path_37" data-name="Path 37" class="cls-8" d="M114.41,25.47a.69.69,0,0,1-.91.36l-5.72-2.43a.69.69,0,0,1,.54-1.27L114,24.56A.7.7,0,0,1,114.41,25.47Z"/></g><g id="Group_32" data-name="Group 32"><path id="Path_38" data-name="Path 38" class="cls-8" d="M98.25,44.07a.68.68,0,0,1,.9-.36l5.72,2.43a.69.69,0,0,1-.54,1.27L98.61,45a.69.69,0,0,1-.36-.91Z"/></g><g id="Group_33" data-name="Group 33"><path id="Path_39" data-name="Path 39" class="cls-9" d="M112.4,21.69a.49.49,0,1,1-1-.15.44.44,0,0,1,.1-.22l.37-.87a.48.48,0,0,1,.56-.41.48.48,0,0,1,.31.78Z"/></g><g id="Group_34" data-name="Group 34"><path id="Path_40" data-name="Path 40" class="cls-9" d="M100.25,47.85a.49.49,0,0,1,1,.15.43.43,0,0,1-.09.22l-.37.87a.49.49,0,0,1-1-.14.52.52,0,0,1,.1-.23Z"/></g><g id="Group_35" data-name="Group 35"><path id="Path_41" data-name="Path 41" class="cls-11" d="M113.41,23.54a1.42,1.42,0,0,1-1.72,1l-1.7-.72a1.62,1.62,0,0,1,1.23-2.88l1.7.72A1.42,1.42,0,0,1,113.41,23.54Z"/></g><g id="Group_36" data-name="Group 36"><path id="Path_42" data-name="Path 42" class="cls-11" d="M99.24,46A1.42,1.42,0,0,1,101,45l1.7.72a1.62,1.62,0,0,1-1.22,2.88l-1.7-.72A1.43,1.43,0,0,1,99.24,46Z"/></g><g id="Group_37" data-name="Group 37"><rect id="Rectangle_12" data-name="Rectangle 12" class="cls-12" x="95.3" y="32.76" width="22.05" height="4.03" transform="translate(32.73 119.02) rotate(-66.97)"/></g><g id="Group_38" data-name="Group 38"><path id="Path_43" data-name="Path 43" class="cls-9" d="M113.61,25.13a.62.62,0,0,1-.75.43l-4.43-1.88a.73.73,0,0,1-.12-1,.7.7,0,0,1,.66-.26l4.43,1.88A.63.63,0,0,1,113.61,25.13Z"/></g><g id="Group_39" data-name="Group 39"><path id="Path_44" data-name="Path 44" class="cls-9" d="M99,44.41A.62.62,0,0,1,99.8,44l4.42,1.88a.73.73,0,0,1,.13,1,.74.74,0,0,1-.67.27l-4.42-1.89A.62.62,0,0,1,99,44.41Z"/></g><g id="Group_40" data-name="Group 40"><path id="Path_45" data-name="Path 45" class="cls-8" d="M135,31.28a.61.61,0,1,1-1.13-.48l.37-.87a.61.61,0,0,1,1.14.45v0Z"/></g><g id="Group_41" data-name="Group 41"><path id="Path_46" data-name="Path 46" class="cls-8" d="M122.55,57.33a.62.62,0,0,1,.8-.34.62.62,0,0,1,.34.8v0l-.37.88a.62.62,0,0,1-.81.32.61.61,0,0,1-.32-.8Z"/></g><g id="Group_42" data-name="Group 42"><path id="Path_47" data-name="Path 47" class="cls-9" d="M136.41,33.33a1.56,1.56,0,0,1-2,.83l-2.2-.93a1.57,1.57,0,0,1,1.23-2.89l2.19.94a1.56,1.56,0,0,1,.82,2Z"/></g><g id="Group_43" data-name="Group 43"><path id="Path_48" data-name="Path 48" class="cls-9" d="M121.1,55.3a1.56,1.56,0,0,1,2-.84l2.2.94a1.57,1.57,0,0,1-1.23,2.88l-2.19-.94A1.55,1.55,0,0,1,121.1,55.3Z"/></g><g id="Group_44" data-name="Group 44"><rect id="Rectangle_13" data-name="Rectangle 13" class="cls-10" x="117.73" y="41.71" width="22.05" height="5.2" transform="translate(37.61 145.47) rotate(-66.97)"/></g><g id="Group_45" data-name="Group 45"><path id="Path_49" data-name="Path 49" class="cls-8" d="M136.84,35a.71.71,0,0,1-.91.37l-5.72-2.44a.69.69,0,0,1,.54-1.27l5.72,2.43A.7.7,0,0,1,136.84,35Z"/></g><g id="Group_46" data-name="Group 46"><path id="Path_50" data-name="Path 50" class="cls-8" d="M120.67,53.61a.69.69,0,0,1,.91-.36l5.72,2.43a.69.69,0,0,1-.54,1.27L121,54.52a.68.68,0,0,1-.36-.9Z"/></g><g id="Group_47" data-name="Group 47"><path id="Path_51" data-name="Path 51" class="cls-9" d="M134.83,31.23a.48.48,0,0,1-.55.42.5.5,0,0,1-.42-.56.52.52,0,0,1,.1-.23l.37-.87a.5.5,0,0,1,.56-.42.49.49,0,0,1,.41.56.43.43,0,0,1-.1.23Z"/></g><g id="Group_48" data-name="Group 48"><path id="Path_52" data-name="Path 52" class="cls-9" d="M122.68,57.39a.49.49,0,0,1,.55-.42.5.5,0,0,1,.42.56.43.43,0,0,1-.1.23l-.37.87a.49.49,0,0,1-.55.42.48.48,0,0,1-.42-.55.43.43,0,0,1,.1-.24l.37-.87Z"/></g><g id="Group_49" data-name="Group 49"><path id="Path_53" data-name="Path 53" class="cls-11" d="M135.84,33.08a1.41,1.41,0,0,1-1.72,1l-1.7-.72a1.62,1.62,0,0,1,1.23-2.88l1.69.72A1.41,1.41,0,0,1,135.84,33.08Z"/></g><g id="Group_50" data-name="Group 50"><path id="Path_54" data-name="Path 54" class="cls-11" d="M121.67,55.54a1.43,1.43,0,0,1,1.72-1l1.7.72a1.62,1.62,0,0,1-1.23,2.88l-1.69-.72A1.41,1.41,0,0,1,121.67,55.54Z"/></g><g id="Group_51" data-name="Group 51"><rect id="Rectangle_14" data-name="Rectangle 14" class="cls-12" x="117.73" y="42.3" width="22.05" height="4.03" transform="translate(37.61 145.47) rotate(-66.97)"/></g><g id="Group_52" data-name="Group 52"><path id="Path_55" data-name="Path 55" class="cls-9" d="M136,34.67a.62.62,0,0,1-.76.43l-4.42-1.88A.71.71,0,0,1,131.4,32l4.43,1.88A.63.63,0,0,1,136,34.67Z"/></g><g id="Group_53" data-name="Group 53"><path id="Path_56" data-name="Path 56" class="cls-9" d="M121.47,54a.63.63,0,0,1,.76-.43l4.42,1.88a.72.72,0,0,1-.54,1.28l-4.43-1.89A.62.62,0,0,1,121.47,54Z"/></g><g id="Group_54" data-name="Group 54"><path id="Path_57" data-name="Path 57" class="cls-13" d="M122,53.44a51.25,51.25,0,0,1-17.64-7.5L113,25.64a52,52,0,0,0,17.64,7.5Z"/></g><g id="Group_55" data-name="Group 55"><path id="Path_58" data-name="Path 58" class="cls-14" d="M120.3,33A27,27,0,0,1,114,29.55l.32-.38a34.67,34.67,0,0,0,13.08,5.56l0,.5A27.06,27.06,0,0,1,120.3,33Z"/></g><g id="Group_56" data-name="Group 56"><path id="Path_59" data-name="Path 59" class="cls-14" d="M119.41,35.15a27,27,0,0,1-6.28-3.5l.32-.38a34.6,34.6,0,0,0,13.08,5.56l0,.5A27.22,27.22,0,0,1,119.41,35.15Z"/></g><g id="Group_57" data-name="Group 57"><path id="Path_60" data-name="Path 60" class="cls-14" d="M118.52,37.24a26.64,26.64,0,0,1-6.28-3.49l.32-.38a26.8,26.8,0,0,0,6.15,3.41Z"/></g><g id="Group_58" data-name="Group 58"><path id="Path_61" data-name="Path 61" class="cls-14" d="M116.73,41.44a35.52,35.52,0,0,1-3.21-1.54l.24-.44A33.42,33.42,0,0,0,116.93,41a26.72,26.72,0,0,0,6.92,2.15l0,.5A27.44,27.44,0,0,1,116.73,41.44Z"/></g><g id="Group_59" data-name="Group 59"><path id="Path_62" data-name="Path 62" class="cls-14" d="M115.84,43.54a27,27,0,0,1-6.28-3.49l.32-.39A34.62,34.62,0,0,0,123,45.23l0,.5A27.57,27.57,0,0,1,115.84,43.54Z"/></g><g id="Group_60" data-name="Group 60"><path id="Path_63" data-name="Path 63" class="cls-14" d="M115,45.64a27,27,0,0,1-6.28-3.49l.32-.39a26.84,26.84,0,0,0,6.15,3.42,26.44,26.44,0,0,0,6.93,2.14l0,.5A26.61,26.61,0,0,1,115,45.64Z"/></g><g id="Group_61" data-name="Group 61"><path id="Path_64" data-name="Path 64" class="cls-14" d="M114.05,47.74a26.77,26.77,0,0,1-6.27-3.5l.32-.38a27.22,27.22,0,0,0,6.15,3.42Z"/></g></g><g id="Group_64" data-name="Group 64"><g id="Group_63" data-name="Group 63"><path id="Path_65" data-name="Path 65" class="cls-15" d="M93.64,40a23.88,23.88,0,0,1,4.21-13.54l33.23,33.22A23.89,23.89,0,0,1,93.64,40Zm47.79,0a23.79,23.79,0,0,1-4.2,13.54L104,20.31A23.88,23.88,0,0,1,141.43,40ZM117.54,7.42A32.59,32.59,0,1,0,150.12,40h0A32.59,32.59,0,0,0,117.54,7.41h0Z"/></g></g></g><rect class="cls-16" x="158.55" y="22.14" width="62.76" height="49.03" rx="1.96"/><rect class="cls-17" x="161.5" y="25.09" width="56.87" height="43.14" rx="1.96"/><polygon class="cls-6" points="165.57 37.77 165.57 26.97 167.81 26.97 167.81 31.09 172.01 31.09 172.01 26.97 174.25 26.97 174.25 37.77 172.01 37.77 172.01 32.95 167.81 32.95 167.81 37.77 165.57 37.77"/><polygon class="cls-6" points="184.41 28.89 178.7 28.89 178.7 31.18 183.94 31.18 183.94 33.05 178.7 33.05 178.7 35.83 184.68 35.83 184.68 37.77 176.49 37.77 176.49 26.97 184.41 26.97 184.41 28.89"/><polygon class="cls-6" points="186.44 26.97 188.69 26.97 188.69 35.83 194.09 35.83 194.09 37.77 186.44 37.77 186.44 26.97"/><polygon class="cls-6" points="195.6 26.97 197.86 26.97 197.86 35.83 203.25 35.83 203.25 37.77 195.6 37.77 195.6 26.97 195.6 26.97"/><path class="cls-6" d="M211.68,35.17a4.45,4.45,0,0,0,.79-2.81,4.45,4.45,0,0,0-.79-2.81,2.79,2.79,0,0,0-4.27,0,4.4,4.4,0,0,0-.8,2.82,4.39,4.39,0,0,0,.8,2.81,2.8,2.8,0,0,0,4.27,0Zm1.41,1.65a5.6,5.6,0,0,1-7.08,0,5.87,5.87,0,0,1-1.64-4.46A5.75,5.75,0,0,1,206,27.9a5.6,5.6,0,0,1,7.08,0,5.74,5.74,0,0,1,1.63,4.46A5.86,5.86,0,0,1,213.09,36.82Z"/><path class="cls-18" d="M194.84,22.18A1.9,1.9,0,0,1,193,24.1h-6.09A1.89,1.89,0,0,1,185,22.18V11.25a1.89,1.89,0,0,1,1.86-1.93H193a1.9,1.9,0,0,1,1.86,1.93Z"/><path class="cls-19" d="M194.84,21.27A1.9,1.9,0,0,1,193,23.2h-6.09A1.89,1.89,0,0,1,185,21.27V10.34a1.9,1.9,0,0,1,1.86-1.93H193a1.9,1.9,0,0,1,1.86,1.93V21.27Z"/><rect class="cls-6" x="164.44" y="39.79" width="50.99" height="25.49" rx="1.96"/><path class="cls-17" d="M173.37,41.73h1.4v4.65h-.91V42.85c0-.16,0-.29,0-.37l-.89,3.9H172l-.88-3.9c0,.08,0,.21,0,.37v3.53h-.91V41.73h1.42l.85,3.66Z"/><path class="cls-17" d="M175.73,47h.37a.59.59,0,0,0,.2-.07.48.48,0,0,0,.14-.23.41.41,0,0,0,.06-.21l-1.26-3.59h1l.75,2.54.71-2.54h1l-1.18,3.38a5,5,0,0,1-.54,1.22,1.06,1.06,0,0,1-.8.23h-.41Z"/><path class="cls-17" d="M183.76,43.14a1.1,1.1,0,0,1,.34.92v2.32h-.92V44.29a1,1,0,0,0-.08-.42.49.49,0,0,0-.5-.26A.62.62,0,0,0,182,44a1.28,1.28,0,0,0-.09.52v1.86H181V43h.87v.5a1.46,1.46,0,0,1,.33-.38,1.14,1.14,0,0,1,.7-.21A1.28,1.28,0,0,1,183.76,43.14Z"/><path class="cls-17" d="M186.85,44.71l-.18.08a.77.77,0,0,1-.24.07l-.2,0a1.61,1.61,0,0,0-.42.13.41.41,0,0,0-.21.38.39.39,0,0,0,.13.33.5.5,0,0,0,.32.11.9.9,0,0,0,.54-.18.71.71,0,0,0,.26-.62v-.33Zm-.55-.42a1.39,1.39,0,0,0,.36-.08.27.27,0,0,0,.19-.26.31.31,0,0,0-.15-.29,1,1,0,0,0-.43-.08.56.56,0,0,0-.46.16.59.59,0,0,0-.13.32h-.87a1.37,1.37,0,0,1,.25-.75,1.49,1.49,0,0,1,1.23-.45,2.18,2.18,0,0,1,1,.22.85.85,0,0,1,.44.85v1.58c0,.11,0,.24,0,.4a.52.52,0,0,0,.05.23.31.31,0,0,0,.14.11v.13h-1a.82.82,0,0,1-.06-.19,1.25,1.25,0,0,1,0-.21,1.85,1.85,0,0,1-.44.34,1.3,1.3,0,0,1-.66.17,1.11,1.11,0,0,1-.77-.27.93.93,0,0,1-.31-.75,1,1,0,0,1,.49-.92,2,2,0,0,1,.8-.22Z"/><path class="cls-17" d="M192.83,43a1,1,0,0,1,.4.31.93.93,0,0,1,.19.44,2.27,2.27,0,0,1,0,.51v2.17h-.92V44.19a.61.61,0,0,0-.07-.32.44.44,0,0,0-.44-.24.5.5,0,0,0-.51.31.93.93,0,0,0-.08.39v2.05h-.9V44.33a1.18,1.18,0,0,0-.06-.44.45.45,0,0,0-.45-.25.53.53,0,0,0-.52.25.91.91,0,0,0-.07.42v2.07h-.91V42.94h.87v.51a1.51,1.51,0,0,1,.32-.39,1.1,1.1,0,0,1,.68-.2A1,1,0,0,1,191,43a1,1,0,0,1,.3.41,1.19,1.19,0,0,1,.44-.45,1.41,1.41,0,0,1,.62-.14A1.2,1.2,0,0,1,192.83,43Z"/><path class="cls-17" d="M195.18,43.79a.87.87,0,0,0-.24.53h1.55a.81.81,0,0,0-.24-.55.79.79,0,0,0-.53-.18A.73.73,0,0,0,195.18,43.79Zm1.35-.78a1.51,1.51,0,0,1,.59.51,1.65,1.65,0,0,1,.27.71,3.28,3.28,0,0,1,0,.68h-2.5a.81.81,0,0,0,.36.73.94.94,0,0,0,.49.13.73.73,0,0,0,.5-.16.78.78,0,0,0,.19-.24h.92A1.2,1.2,0,0,1,197,46a1.67,1.67,0,0,1-1.29.5,1.83,1.83,0,0,1-1.21-.43A1.66,1.66,0,0,1,194,44.7a1.87,1.87,0,0,1,.48-1.38,1.67,1.67,0,0,1,1.23-.47A2,2,0,0,1,196.53,43Z"/><path class="cls-17" d="M199.69,42.94h.91v3.44h-.91Zm.91-.41h-.91V41.7h.91Z"/><path class="cls-17" d="M202.17,45.28a.61.61,0,0,0,.12.34.83.83,0,0,0,.62.18.89.89,0,0,0,.43-.08.26.26,0,0,0,0-.46,4.62,4.62,0,0,0-.94-.28,1.85,1.85,0,0,1-.83-.36.78.78,0,0,1-.24-.62,1.08,1.08,0,0,1,.38-.82,1.48,1.48,0,0,1,1-.34,1.94,1.94,0,0,1,1.05.26,1.09,1.09,0,0,1,.47.89h-.9a.55.55,0,0,0-.1-.28.62.62,0,0,0-.5-.18.79.79,0,0,0-.43.09.26.26,0,0,0-.12.21.24.24,0,0,0,.13.23,5.78,5.78,0,0,0,.94.25,1.7,1.7,0,0,1,.81.38.85.85,0,0,1,.26.65,1,1,0,0,1-.38.83,1.75,1.75,0,0,1-1.18.33,1.77,1.77,0,0,1-1.2-.35,1.08,1.08,0,0,1-.38-.87Z"/><rect class="cls-17" x="205.05" y="45.44" width="0.96" height="0.94"/><rect class="cls-17" x="206.85" y="45.44" width="0.96" height="0.94"/><rect class="cls-17" x="208.65" y="45.44" width="0.96" height="0.94"/></svg>